<svg width="48" height="48" viewBox="0 0 48 48" fill="none" xmlns="http://www.w3.org/2000/svg">
<path fill-rule="evenodd" clip-rule="evenodd" d="M4.71429 17.4286C7.31791 17.4286 9.42857 15.3179 9.42857 12.7143C9.42857 10.1107 7.31791 8 4.71429 8C2.11066 8 0 10.1107 0 12.7143C0 15.3179 2.11066 17.4286 4.71429 17.4286ZM4.71429 29.6857C7.31791 29.6857 9.42857 27.5751 9.42857 24.9714C9.42857 22.3678 7.31791 20.2571 4.71429 20.2571C2.11066 20.2571 0 22.3678 0 24.9714C0 27.5751 2.11066 29.6857 4.71429 29.6857ZM33 12.7143C33 15.3179 30.8893 17.4286 28.2857 17.4286C25.6821 17.4286 23.5714 15.3179 23.5714 12.7143C23.5714 10.1107 25.6821 8 28.2857 8C30.8893 8 33 10.1107 33 12.7143ZM16.0286 17.4286C18.6322 17.4286 20.7429 15.3179 20.7429 12.7143C20.7429 10.1107 18.6322 8 16.0286 8C13.4249 8 11.3143 10.1107 11.3143 12.7143C11.3143 15.3179 13.4249 17.4286 16.0286 17.4286ZM21.6857 24.9714C21.6857 27.5751 19.5751 29.6857 16.9714 29.6857C14.3678 29.6857 12.2571 27.5751 12.2571 24.9714C12.2571 22.3678 14.3678 20.2571 16.9714 20.2571C19.5751 20.2571 21.6857 22.3678 21.6857 24.9714ZM4.71429 41C7.31791 41 9.42857 38.8893 9.42857 36.2857C9.42857 33.6821 7.31791 31.5714 4.71429 31.5714C2.11066 31.5714 0 33.6821 0 36.2857C0 38.8893 2.11066 41 4.71429 41ZM33 36.2857C33 38.8893 30.8893 41 28.2857 41C25.6821 41 23.5714 38.8893 23.5714 36.2857C23.5714 33.6821 25.6821 31.5714 28.2857 31.5714C30.8893 31.5714 33 33.6821 33 36.2857Z" fill="#3D3D3D"/>
</svg>
